<svg xmlns="http://www.w3.org/2000/svg" viewBox="0 0 24 24" fill="none">
  <path d="M15.8454 3.34C16.5599 3.34 17.2206 3.721 17.5778 4.34L21.4225 11C21.7798 11.619 21.7798 12.381 21.4225 13L17.5778 19.66C17.2206 20.279 16.5599 20.66 15.8454 20.66H8.15495C7.44042 20.66 6.7798 20.279 6.42253 19.66L2.5778 13C2.22054 12.381 2.22054 11.619 2.5778 11L6.42253 4.34C6.7798 3.721 7.44042 3.34 8.15495 3.34H15.8454ZM10.155 6.804C9.44044 6.804 8.7798 7.185 8.42253 7.804L6.5778 11C6.22054 11.619 6.22054 12.381 6.5778 13L8.42253 16.196C8.7798 16.815 9.44044 17.196 10.155 17.196H13.8454C14.5599 17.196 15.2206 16.815 15.5778 16.196L17.4225 13C17.7798 12.381 17.7798 11.619 17.4225 11L15.5778 7.804C15.2206 7.185 14.5599 6.804 13.8454 6.804H10.155Z" fill="white"/>
  <circle cx="12" cy="12" r="2" fill="white"/>
</svg>
